<?xml version="1.0" encoding="UTF-8" standalone="no"?>
<!-- Created with Inkscape (http://www.inkscape.org/) -->

<svg
   xmlns:dc="http://purl.org/dc/elements/1.1/"
   xmlns:cc="http://creativecommons.org/ns#"
   xmlns:rdf="http://www.w3.org/1999/02/22-rdf-syntax-ns#"
   xmlns:svg="http://www.w3.org/2000/svg"
   xmlns="http://www.w3.org/2000/svg"
   xmlns:sodipodi="http://sodipodi.sourceforge.net/DTD/sodipodi-0.dtd"
   xmlns:inkscape="http://www.inkscape.org/namespaces/inkscape"
   width="116.05843mm"
   height="125.84617mm"
   viewBox="0 0 116.05843 125.84617"
   version="1.1"
   id="svg8"
   sodipodi:docname="gauge0.svg"
   inkscape:version="0.92.4 (f8dce91, 2019-08-02)">
  <defs
     id="defs2" />
  <sodipodi:namedview
     id="base"
     pagecolor="#ffffff"
     bordercolor="#666666"
     borderopacity="1.0"
     inkscape:pageopacity="0.0"
     inkscape:pageshadow="2"
     inkscape:zoom="1.4142136"
     inkscape:cx="80.584056"
     inkscape:cy="27.69573"
     inkscape:document-units="mm"
     inkscape:current-layer="g1885"
     showgrid="false"
     inkscape:window-width="1050"
     inkscape:window-height="1643"
     inkscape:window-x="0"
     inkscape:window-y="0"
     inkscape:window-maximized="1"
     fit-margin-top="0"
     fit-margin-left="0"
     fit-margin-right="0"
     fit-margin-bottom="0"
     showguides="true"
     inkscape:guide-bbox="true" />
  <metadata
     id="metadata5">
    <rdf:RDF>
      <cc:Work
         rdf:about="">
        <dc:format>image/svg+xml</dc:format>
        <dc:type
           rdf:resource="http://purl.org/dc/dcmitype/StillImage" />
        <dc:title></dc:title>
      </cc:Work>
    </rdf:RDF>
  </metadata>
  <g
     inkscape:label="Layer 1"
     inkscape:groupmode="layer"
     id="layer1"
     transform="translate(-27.392592,-169.5386)">
    <path
       style="opacity:1;fill:#600000;fill-opacity:1;stroke:none;stroke-width:0.66500002;stroke-miterlimit:4;stroke-dasharray:none;stroke-dashoffset:0;stroke-opacity:0.70588235"
       d="m 124.06205,276.56733 -57.8627,-1.10338 v -72.96458 l 64.27831,-0.93544 z"
       id="rect879"
       inkscape:connector-curvature="0"
       sodipodi:nodetypes="ccccc" />
    <path
       style="fill:#ffff00;fill-opacity:0.99159666;stroke:#060600;stroke-width:0.66500002;stroke-linecap:butt;stroke-linejoin:miter;stroke-miterlimit:4;stroke-dasharray:none;stroke-opacity:1"
       d="m 82.874918,246.40196 c -2.405425,26.45968 -0.556789,17.26181 -14.722077,25.81443 -14.165284,8.55263 58.494569,4.95955 58.494569,4.95955 0,0 -27.736322,-27.29948 -19.45096,-30.50671 8.28535,-3.20723 -24.321532,-0.26727 -24.321532,-0.26727 z"
       id="path876"
       inkscape:connector-curvature="0"
       sodipodi:nodetypes="cscsc" />
    <path
       sodipodi:nodetypes="cccsc"
       inkscape:connector-curvature="0"
       id="path982"
       d="m 105.42442,277.30744 c 11.34062,-0.19815 20.69382,-0.66067 20.69382,-0.66067 0,0 -27.736319,-27.29948 -19.45096,-30.50671 -7.658451,1.5587 -18.315723,12.34679 -10.099072,20.58567 2.816352,2.82397 8.856212,10.58171 8.856212,10.58171 z"
       style="fill:#d6d600;fill-opacity:0.99159666;stroke:none;stroke-width:0.66500002;stroke-linecap:butt;stroke-linejoin:miter;stroke-miterlimit:4;stroke-dasharray:none;stroke-opacity:1" />
    <path
       style="opacity:1;fill:#ffff00;fill-opacity:0.99215686;stroke:#000000;stroke-width:0.98264009;stroke-miterlimit:4;stroke-dasharray:none;stroke-dashoffset:0;stroke-opacity:0.97071078"
       d="m 128.51189,216.9894 c 0,12.97705 -4.88515,19.15807 -11.06853,26.02907 -5.43784,6.04256 -11.62278,13.56983 -19.925508,13.56983 -7.863974,0 -13.211905,-5.90721 -19.044378,-11.35728 -7.327564,-6.84714 -14.217529,-14.66148 -14.21753,-28.24162 -10e-7,-24.38944 15.329126,-39.03849 33.072918,-39.03849 17.743788,1e-5 31.183028,14.64905 31.183028,39.03849 z"
       id="path815"
       inkscape:connector-curvature="0"
       sodipodi:nodetypes="sssssss" />
    <ellipse
       style="opacity:0.85;fill:#ffffff;fill-opacity:0.99215686;stroke:#000000;stroke-width:1.21925473;stroke-miterlimit:4;stroke-dasharray:none;stroke-dashoffset:0;stroke-opacity:0.97071078"
       id="path820"
       cx="82.849152"
       cy="204.86311"
       rx="8.3093624"
       ry="5.8371196" />
    <ellipse
       style="opacity:0.70800003;fill:#000000;fill-opacity:0.99215686;stroke:#000000;stroke-width:1;stroke-miterlimit:4;stroke-dasharray:none;stroke-dashoffset:0;stroke-opacity:0.97071078"
       id="path822"
       cx="82.303795"
       cy="207.46341"
       rx="3.0067821"
       ry="2.6726952" />
    <ellipse
       style="opacity:0.85;fill:#ffffff;fill-opacity:0.99215686;stroke:#000000;stroke-width:1.21925473;stroke-miterlimit:4;stroke-dasharray:none;stroke-dashoffset:0;stroke-opacity:0.97071078"
       id="path820-3"
       cx="108.37337"
       cy="204.79628"
       rx="8.3093624"
       ry="5.8371196" />
    <ellipse
       style="opacity:0.70800003;fill:#000000;fill-opacity:0.99215686;stroke:#000000;stroke-width:1;stroke-miterlimit:4;stroke-dasharray:none;stroke-dashoffset:0;stroke-opacity:0.97071078"
       id="path822-6"
       cx="105.82254"
       cy="207.37392"
       rx="3.0067821"
       ry="2.6726952" />
    <path
       style="opacity:1;fill:#600000;fill-opacity:1;stroke:#333333;stroke-width:1;stroke-miterlimit:4;stroke-dasharray:none;stroke-dashoffset:0;stroke-opacity:0.97071078"
       d="m 105.56704,252.46734 c 0,7.74947 -4.30778,14.03165 -9.621694,14.03165 -5.313919,0 -9.6217,-6.28218 -9.6217,-14.03165 0,-7.74947 4.575051,-5.87993 9.88897,-5.87993 5.313914,0 9.354424,-1.86954 9.354424,5.87993 z"
       id="path844"
       inkscape:connector-curvature="0"
       sodipodi:nodetypes="sssss" />
    <path
       style="fill:#333333;stroke:#333333;stroke-width:0.26458332px;stroke-linecap:butt;stroke-linejoin:miter;stroke-opacity:1"
       d="m 100.82515,195.26771 c 0,0 9.73288,-3.02381 12.85119,-1.70089 3.1183,1.32292 6.61458,6.14211 6.61458,6.14211 0,0 -4.63021,-3.96875 -7.37054,-4.6302 -2.74032,-0.66146 -12.09523,0.18898 -12.09523,0.18898 z"
       id="path851"
       inkscape:connector-curvature="0" />
    <path
       inkscape:connector-curvature="0"
       id="path853"
       d="m 91.471261,195.17322 c 0,0 -10.111369,-3.02381 -13.350943,-1.70089 -3.239564,1.32292 -6.871807,6.14211 -6.871807,6.14211 0,0 4.810269,-3.96875 7.657164,-4.6302 2.846885,-0.66146 12.565586,0.18898 12.565586,0.18898 z"
       style="fill:#333333;stroke:#333333;stroke-width:0.2696788px;stroke-linecap:butt;stroke-linejoin:miter;stroke-opacity:1" />
    <g
       id="g861"
       transform="translate(-8.1838084,82.988513)"
       style="stroke-width:1;stroke-miterlimit:4;stroke-dasharray:none">
      <ellipse
         transform="matrix(0.48633605,-0.87377185,0.96476976,0.26309564,0,0)"
         ry="2.1342111"
         rx="0.69586116"
         cy="165.1539"
         cx="-111.3499"
         id="path855"
         style="opacity:1;fill:#4d4d4d;fill-opacity:0.99163178;stroke:#4d4d4d;stroke-width:1.01485372;stroke-miterlimit:4;stroke-dasharray:none;stroke-dashoffset:0;stroke-opacity:0.97071078" />
      <path
         inkscape:connector-curvature="0"
         id="path857"
         d="m 106.30646,136.37101 c 1.5368,2.40542 0.80181,1.73725 1.67043,2.40542 0.86863,0.66818 1.80407,2.80633 0.73499,3.34087 -1.06908,0.53454 -1.9377,0.93545 -1.9377,0.93545"
         style="fill:none;fill-opacity:0.90980392;stroke:#4d4d4d;stroke-width:1;stroke-linecap:butt;stroke-linejoin:miter;stroke-miterlimit:4;stroke-dasharray:none;stroke-opacity:1" />
    </g>
    <g
       transform="matrix(-0.7983833,0,0,1,175.82808,82.988513)"
       id="g867"
       style="stroke-width:1.11916542;stroke-miterlimit:4;stroke-dasharray:none">
      <ellipse
         style="opacity:1;fill:#4d4d4d;fill-opacity:0.99163178;stroke:#4d4d4d;stroke-width:1.13578916;stroke-miterlimit:4;stroke-dasharray:none;stroke-dashoffset:0;stroke-opacity:0.97071078"
         id="ellipse863"
         cx="-111.23454"
         cy="165.53699"
         rx="0.69586116"
         ry="2.1342111"
         transform="matrix(0.48633605,-0.87377185,0.96476976,0.26309564,0,0)" />
      <path
         style="fill:none;fill-opacity:0.90980392;stroke:#4d4d4d;stroke-width:1.11916542;stroke-linecap:butt;stroke-linejoin:miter;stroke-miterlimit:4;stroke-dasharray:none;stroke-opacity:1"
         d="m 103.58425,125.03172 c -0.63727,8.34383 3.48114,13.24773 4.39264,13.74471 0.86863,0.66818 1.80407,2.80633 0.73499,3.34087 -1.06908,0.53454 -1.9377,0.93545 -1.9377,0.93545"
         id="path865"
         inkscape:connector-curvature="0"
         sodipodi:nodetypes="ccsc" />
    </g>
    <path
       style="fill:#800000;fill-opacity:1;stroke:#540000;stroke-width:1.26499999;stroke-linecap:butt;stroke-linejoin:miter;stroke-miterlimit:4;stroke-dasharray:none;stroke-opacity:1"
       d="m 60.422227,274.52288 c -2.352588,-7.39931 -5.275361,-14.80945 -4.927194,-22.7295 0.0087,-6.90562 -0.561999,-13.7704 -0.36842,-20.67656 -0.759225,-6.12325 -3.085178,-12.46706 0.246433,-18.35575 4.10991,-11.07161 8.877596,-22.10027 16.448217,-31.30256 2.295236,-5.44513 8.040885,-8.05771 13.638032,-8.13157 5.279732,-1.35044 11.290017,-5.23445 16.537675,-1.74233 5.31455,3.8531 12.1718,4.70737 17.67838,8.16097 4.52979,1.36016 11.03393,2.50441 11.71239,8.22394 -0.72029,6.89914 -0.39433,14.10194 2.28053,20.60222 1.81048,8.72079 2.73719,17.76246 6.66949,25.8785 1.72009,5.7448 1.99348,11.82508 2.47632,17.76063 -1.01261,5.82255 0.85651,13.37052 -1.27471,18.17031 -2.28207,-2.13107 -4.4295,-4.93238 -7.86813,-2.45835 -5.14783,0.36704 -6.42162,4.78296 -9.60919,8.6445 -2.1649,4.53646 -3.99326,0.87974 -3.29459,-2.26383 0.10645,-6.06332 1.21227,-12.0884 1.08432,-18.14987 1.71548,-6.30238 5.4194,-12.27433 3.90054,-19.06801 0.74708,-5.7295 0.1447,-11.41196 0.0532,-17.13477 -0.22788,-5.87103 0.40463,-11.76737 0.13157,-17.6099 -0.44316,-6.43803 -4.79964,-13.7379 -12.02337,-12.09713 -4.81852,-2.17893 -11.77699,-3.16497 -18.212978,-0.28946 1.15871,-1.74637 0.23179,-4.67332 -1.75874,-4.16774 -3.839626,0.97524 -7.793541,1.52392 -11.449343,3.14042 -4.750454,1.45492 -10.077955,2.91414 -11.244148,8.57072 -1.581279,4.68289 -3.22068,10.15694 -1.167612,14.9315 6.984558,1.77152 -2.523592,7.13868 -0.461633,11.65419 -0.885197,5.69696 2.041738,11.15027 0.925737,16.81845 -1.603565,4.4024 1.795479,7.05924 4.148932,9.68806 1.001859,7.19746 -2.624567,14.31303 -1.365475,21.47939 4.332772,5.41221 -4.867863,0.91441 -7.129117,3.3946 -2.14914,1.21066 -9.212165,0.2256 -8.120627,0.0181 l 0.993928,-0.41288 -0.918234,0.58764"
       id="path871"
       inkscape:connector-curvature="0"
       sodipodi:nodetypes="ccccccccccccccccccccccsccccccccccc" />
    <path
       style="fill:#d7d700;fill-opacity:1;stroke:none;stroke-width:0.26458332px;stroke-linecap:butt;stroke-linejoin:miter;stroke-opacity:1"
       d="m 97.987342,210.91267 c 10.289938,10.64342 9.453998,7.22757 10.201108,10.67562 0.7471,3.44805 4.92675,5.55156 4.92675,5.55156 l -4.01929,-8.59418 z"
       id="path1010"
       inkscape:connector-curvature="0" />
    <path
       style="fill:#d7d700;fill-opacity:1;stroke:none;stroke-width:0.26458332px;stroke-linecap:butt;stroke-linejoin:miter;stroke-opacity:1"
       d="m 101.71389,210.0775 c 11.02487,3.20723 14.56619,-1.60362 14.56619,-1.60362 0,0 0.86863,6.48128 -5.67947,5.81311 -6.54811,-0.66817 -8.88672,-4.20949 -8.88672,-4.20949 z"
       id="path1012"
       inkscape:connector-curvature="0" />
    <path
       style="fill:#d7d700;fill-opacity:1;stroke:none;stroke-width:0.27922305px;stroke-linecap:butt;stroke-linejoin:miter;stroke-opacity:1"
       d="m 91.070831,209.88629 c -12.278663,3.20723 -16.222717,-1.60362 -16.222717,-1.60362 0,0 -0.967415,6.48128 6.325363,5.81311 7.292784,-0.66817 9.897354,-4.20949 9.897354,-4.20949 z"
       id="path1012-2"
       inkscape:connector-curvature="0" />
    <path
       style="fill:#d7d700;fill-opacity:1;stroke:none;stroke-width:0.24754745px;stroke-linecap:butt;stroke-linejoin:miter;stroke-opacity:1"
       d="m 90.946958,211.84943 c -8.967953,11.41021 -8.275853,7.96718 -8.888757,11.43408 -0.612905,3.46689 -4.287289,5.91242 -4.287289,5.91242 l 3.439539,-8.83261 z"
       id="path1010-9"
       inkscape:connector-curvature="0" />
    <path
       style="fill:#d7d700;fill-opacity:1;stroke:none;stroke-width:0.26458332px;stroke-linecap:butt;stroke-linejoin:miter;stroke-opacity:1"
       d="m 85.795231,243.18817 c 0,0 -1.299989,-2.27538 6.920994,-1.61393 8.220975,0.66146 10.479335,1.63687 10.479335,1.63687 0,0 0.88248,-3.09293 -10.338985,-2.69529 -11.221473,0.39764 -7.061344,2.67235 -7.061344,2.67235 z"
       id="path1044"
       inkscape:connector-curvature="0"
       sodipodi:nodetypes="cccsc" />
    <path
       style="fill:#333333;stroke:#333333;stroke-width:0.23896307px;stroke-linecap:butt;stroke-linejoin:miter;stroke-opacity:1"
       d="m 80.073271,235.421 c 0,0 7.629988,-5.01105 15.420195,-3.61947 7.790214,1.39159 14.239394,4.09679 14.239394,4.09679 0,0 -6.80387,-0.15782 -14.606778,-1.2656 -7.802919,-1.10775 -15.052811,0.78828 -15.052811,0.78828 z"
       id="path849"
       inkscape:connector-curvature="0"
       sodipodi:nodetypes="cscsc" />
    <g
       id="g1885"
       transform="matrix(1.6010544,0,0,1.6010544,59.227924,-66.339753)">
      <rect
         style="opacity:0.428;fill:#ffffff;fill-opacity:1;stroke:none;stroke-width:1.16432214;stroke-miterlimit:4;stroke-dasharray:none;stroke-dashoffset:0;stroke-opacity:1"
         id="rect1914"
         width="71.981705"
         height="79.46032"
         x="-19.486197"
         y="146.04921" />
      <g
         id="g1897"
         transform="matrix(0.79146873,0.19562675,-0.214516,0.86789104,46.680282,25.271561)">
        <path
           style="opacity:1;fill:#0000ff;fill-opacity:1;stroke:none;stroke-width:1.66827404;stroke-miterlimit:4;stroke-dasharray:none;stroke-dashoffset:0;stroke-opacity:1"
           d="m -16.434715,186.94689 a 7.2266702,7.9271114 40.003959 0 0 -0.04971,10.25815 l 10.1413049,-12.08425 a 7.2266702,7.9271114 40.003959 0 0 -10.0915969,1.8261 z"
           id="path1810-4"
           inkscape:connector-curvature="0" />
        <path
           style="opacity:1;fill:#000000;fill-opacity:1;stroke:none;stroke-width:0.27539498;stroke-miterlimit:4;stroke-dasharray:none;stroke-dashoffset:0;stroke-opacity:1"
           d="m -17.356253,186.07993 a 1.5360673,1.0162961 40.003959 0 0 0.417248,1.67066 l 1.300169,-1.54926 a 1.5360673,1.0162961 40.003959 0 0 -1.717417,-0.1214 z"
           id="path1810-6-1"
           inkscape:connector-curvature="0" />
        <path
           style="fill:#ffffff;stroke:none;stroke-width:0.26458332px;stroke-linecap:butt;stroke-linejoin:miter;stroke-opacity:1"
           d="m -16.471681,188.31276 c 0,0 -1.819011,1.95131 -1.058334,4.69636 0.760677,2.74505 0.859896,-3.14193 0.859896,-3.14193 z"
           id="path1855"
           inkscape:connector-curvature="0" />
      </g>
      <ellipse
         style="opacity:1;fill:#004900;fill-opacity:1;stroke:none;stroke-width:0.98427629;stroke-miterlimit:4;stroke-dasharray:none;stroke-dashoffset:0;stroke-opacity:1"
         id="circle1892"
         cx="8.002883"
         cy="204.65334"
         rx="19.404699"
         ry="19.083353" />
      <circle
         r="19.550766"
         cy="204.0264"
         cx="3.9271898"
         id="path1768"
         style="opacity:1;fill:#008000;fill-opacity:1;stroke:none;stroke-width:1;stroke-miterlimit:4;stroke-dasharray:none;stroke-dashoffset:0;stroke-opacity:1" />
      <ellipse
         ry="17.866968"
         rx="18.33469"
         style="opacity:1;fill:#e6e6e6;fill-opacity:1;stroke:none;stroke-width:0.92576003;stroke-miterlimit:4;stroke-dasharray:none;stroke-dashoffset:0;stroke-opacity:1"
         id="circle1770"
         cx="3.9956446"
         cy="204.37695" />
      <rect
         y="192.2002"
         x="3.4231834"
         height="11.62851"
         width="1.1225319"
         id="rect1772"
         style="opacity:1;fill:#000000;fill-opacity:1;stroke:none;stroke-width:0.82419074;stroke-miterlimit:4;stroke-dasharray:none;stroke-dashoffset:0;stroke-opacity:1" />
      <rect
         transform="matrix(0.97451832,-0.22430791,0.28065299,0.9598093,0,0)"
         style="opacity:1;fill:#000000;fill-opacity:1;stroke:none;stroke-width:0.94272703;stroke-miterlimit:4;stroke-dasharray:none;stroke-dashoffset:0;stroke-opacity:1"
         id="rect1789"
         width="1.1149738"
         height="15.31703"
         x="-54.055775"
         y="184.70755" />
      <circle
         r="2.2158854"
         cy="204.02324"
         cx="3.8673224"
         id="path1791"
         style="opacity:1;fill:#000000;fill-opacity:1;stroke:none;stroke-width:1;stroke-miterlimit:4;stroke-dasharray:none;stroke-dashoffset:0;stroke-opacity:1" />
      <rect
         transform="rotate(-42.703098)"
         y="155.07002"
         x="-161.24751"
         height="2.8998742"
         width="6.9222808"
         id="rect1793"
         style="opacity:1;fill:#008000;fill-opacity:1;stroke:none;stroke-width:1;stroke-miterlimit:4;stroke-dasharray:none;stroke-dashoffset:0;stroke-opacity:1" />
      <rect
         transform="matrix(-0.7019993,-0.71217763,-0.64297798,0.76588466,0,0)"
         y="141.01614"
         x="-160.1434"
         height="2.7824733"
         width="6.5920162"
         id="rect1793-2"
         style="opacity:1;fill:#008000;fill-opacity:1;stroke:none;stroke-width:0.9558956;stroke-miterlimit:4;stroke-dasharray:none;stroke-dashoffset:0;stroke-opacity:1" />
      <g
         id="g1902"
         transform="matrix(0.79895821,-0.23906134,0.21892181,0.7316506,-42.26082,52.427983)">
        <path
           sodipodi:nodetypes="ccscc"
           style="opacity:1;fill:#0000ff;fill-opacity:1;stroke:none;stroke-width:1.66827404;stroke-miterlimit:4;stroke-dasharray:none;stroke-dashoffset:0;stroke-opacity:1"
           d="m 26.488998,187.9884 c -2.581592,-3.17472 -6.941699,-4.03631 -10.063669,-1.98864 0,0 1.324444,3.09782 4.000504,6.69659 2.496622,3.35747 5.947985,5.54689 5.947985,5.54689 2.642323,-2.63597 2.692217,-7.0782 0.11518,-10.25484 z"
           id="path1810"
           inkscape:connector-curvature="0" />
        <path
           style="opacity:1;fill:#000000;fill-opacity:1;stroke:none;stroke-width:0.27539498;stroke-miterlimit:4;stroke-dasharray:none;stroke-dashoffset:0;stroke-opacity:1"
           d="m 26.488998,187.9884 a 1.0162961,1.5360673 50.904282 0 0 -1.719417,0.0938 l 1.275447,1.56968 a 1.0162961,1.5360673 50.904282 0 0 0.443974,-1.66348 z"
           id="path1810-6"
           inkscape:connector-curvature="0" />
        <path
           style="fill:#ffffff;stroke:none;stroke-width:0.26458332px;stroke-linecap:butt;stroke-linejoin:miter;stroke-opacity:1"
           d="m 24.691578,187.11152 c 0,0 -1.564553,-2.10457 -4.392726,-1.76869 -2.828173,0.33589 2.910104,1.33408 2.910104,1.33408 z"
           id="path1855-4"
           inkscape:connector-curvature="0" />
      </g>
      <path
         style="opacity:1;fill:#808080;fill-opacity:1;stroke:none;stroke-width:5.60198593;stroke-miterlimit:4;stroke-dasharray:none;stroke-dashoffset:0;stroke-opacity:1"
         d="M 134.23438,241.17969 A 110.94741,108.11712 0 0 0 23.287109,349.29688 110.94741,108.11712 0 0 0 55.167969,425.09766 110.94741,108.11712 0 0 1 30.710938,357.42773 110.94741,108.11712 0 0 1 141.6582,249.31055 a 110.94741,108.11712 0 0 1 79.07618,32.32617 110.94741,108.11712 0 0 0 -86.5,-40.45703 z"
         transform="matrix(0.16525568,0,0,0.16525568,-18.421042,146.3031)"
         id="ellipse1887"
         inkscape:connector-curvature="0" />
      <rect
         style="opacity:1;fill:#ffffff;fill-opacity:1;stroke:none;stroke-width:0.62458843;stroke-miterlimit:4;stroke-dasharray:none;stroke-dashoffset:0;stroke-opacity:1"
         id="rect1906"
         width="0.30236483"
         height="4.2800622"
         x="4.2433505"
         y="187.92014" />
      <rect
         y="217.91405"
         x="3.4170721"
         height="4.2800622"
         width="0.30236483"
         id="rect1908"
         style="opacity:1;fill:#ffffff;fill-opacity:1;stroke:none;stroke-width:0.62458843;stroke-miterlimit:4;stroke-dasharray:none;stroke-dashoffset:0;stroke-opacity:1" />
      <rect
         style="opacity:1;fill:#ffffff;fill-opacity:1;stroke:none;stroke-width:0.62458843;stroke-miterlimit:4;stroke-dasharray:none;stroke-dashoffset:0;stroke-opacity:1"
         id="rect1910"
         width="0.30236483"
         height="4.2800622"
         x="-202.42792"
         y="-14.424919"
         transform="rotate(-90.314076)" />
      <rect
         transform="matrix(-0.00521718,-0.99998639,0.99998341,-0.00575949,0,0)"
         y="17.145889"
         x="-203.51437"
         height="4.073576"
         width="0.30236441"
         id="rect1912"
         style="opacity:1;fill:#ffffff;fill-opacity:1;stroke:none;stroke-width:0.60933554;stroke-miterlimit:4;stroke-dasharray:none;stroke-dashoffset:0;stroke-opacity:1" />
    </g>
  </g>
</svg>
