<?xml version="1.0" encoding="UTF-8" standalone="no"?>
<!-- Created with Inkscape (http://www.inkscape.org/) -->

<svg
   xmlns:dc="http://purl.org/dc/elements/1.1/"
   xmlns:cc="http://creativecommons.org/ns#"
   xmlns:rdf="http://www.w3.org/1999/02/22-rdf-syntax-ns#"
   xmlns:svg="http://www.w3.org/2000/svg"
   xmlns="http://www.w3.org/2000/svg"
   xmlns:sodipodi="http://sodipodi.sourceforge.net/DTD/sodipodi-0.dtd"
   xmlns:inkscape="http://www.inkscape.org/namespaces/inkscape"
   width="90.465019mm"
   height="115.7529mm"
   viewBox="0 0 90.46502 115.7529"
   version="1.1"
   id="svg8"
   sodipodi:docname="mono0.svg"
   inkscape:version="0.92.4 (f8dce91, 2019-08-02)">
  <defs
     id="defs2" />
  <sodipodi:namedview
     id="base"
     pagecolor="#ffffff"
     bordercolor="#666666"
     borderopacity="1.0"
     inkscape:pageopacity="0.0"
     inkscape:pageshadow="2"
     inkscape:zoom="1.4142136"
     inkscape:cx="256.61206"
     inkscape:cy="82.371832"
     inkscape:document-units="mm"
     inkscape:current-layer="layer1"
     showgrid="false"
     inkscape:window-width="1050"
     inkscape:window-height="1643"
     inkscape:window-x="0"
     inkscape:window-y="0"
     inkscape:window-maximized="1"
     fit-margin-top="0"
     fit-margin-left="0"
     fit-margin-right="0"
     fit-margin-bottom="0" />
  <metadata
     id="metadata5">
    <rdf:RDF>
      <cc:Work
         rdf:about="">
        <dc:format>image/svg+xml</dc:format>
        <dc:type
           rdf:resource="http://purl.org/dc/dcmitype/StillImage" />
        <dc:title></dc:title>
      </cc:Work>
    </rdf:RDF>
  </metadata>
  <g
     inkscape:label="Layer 1"
     inkscape:groupmode="layer"
     id="layer1"
     transform="translate(-52.986007,-164.74967)">
    <path
       style="opacity:1;fill:#600000;fill-opacity:1;stroke:none;stroke-width:0.66500002;stroke-miterlimit:4;stroke-dasharray:none;stroke-dashoffset:0;stroke-opacity:0.70588235"
       d="m 124.06205,276.56733 -57.8627,-1.10338 v -72.96458 l 64.27831,-0.93544 z"
       id="rect879"
       inkscape:connector-curvature="0"
       sodipodi:nodetypes="ccccc" />
    <path
       style="fill:#ffff00;fill-opacity:0.99159666;stroke:#060600;stroke-width:0.66500002;stroke-linecap:butt;stroke-linejoin:miter;stroke-miterlimit:4;stroke-dasharray:none;stroke-opacity:1"
       d="m 83.155551,248.64702 c -2.405425,26.45968 -0.556789,17.26181 -14.722077,25.81443 -14.165284,8.55263 58.494566,4.95955 58.494566,4.95955 0,0 -27.736319,-27.29948 -19.45096,-30.50671 8.28535,-3.20723 -24.321529,-0.26727 -24.321529,-0.26727 z"
       id="path876"
       inkscape:connector-curvature="0"
       sodipodi:nodetypes="cscsc" />
    <path
       sodipodi:nodetypes="cccsc"
       inkscape:connector-curvature="0"
       id="path982"
       d="m 105.70505,279.5525 c 11.34062,-0.19815 20.69382,-0.66067 20.69382,-0.66067 0,0 -27.736316,-27.29948 -19.45096,-30.50671 -7.658448,1.5587 -18.31572,12.34679 -10.099069,20.58567 2.816352,2.82397 8.856209,10.58171 8.856209,10.58171 z"
       style="fill:#d6d600;fill-opacity:0.99159666;stroke:none;stroke-width:0.66500002;stroke-linecap:butt;stroke-linejoin:miter;stroke-miterlimit:4;stroke-dasharray:none;stroke-opacity:1" />
    <path
       style="opacity:1;fill:#ffff00;fill-opacity:0.99215686;stroke:#000000;stroke-width:1;stroke-miterlimit:4;stroke-dasharray:none;stroke-dashoffset:0;stroke-opacity:0.97071078"
       d="m 128.51189,218.38094 c 0,13.43962 -4.88515,19.84097 -11.06853,26.95689 -5.43784,6.25795 -11.62278,14.05353 -19.925508,14.05353 -7.863974,0 -13.211905,-6.11778 -19.044378,-11.76212 -7.327564,-7.09121 -14.217529,-15.18409 -14.21753,-29.2483 -10e-7,-25.25881 15.329126,-40.43003 33.072918,-40.43003 17.743788,1e-5 31.183028,15.17122 31.183028,40.43003 z"
       id="path815"
       inkscape:connector-curvature="0"
       sodipodi:nodetypes="sssssss" />
    <ellipse
       style="opacity:0.85;fill:#ffffff;fill-opacity:0.99215686;stroke:#000000;stroke-width:1.21925473;stroke-miterlimit:4;stroke-dasharray:none;stroke-dashoffset:0;stroke-opacity:0.97071078"
       id="path820"
       cx="82.849152"
       cy="204.86311"
       rx="8.3093624"
       ry="5.8371196" />
    <ellipse
       style="opacity:0.70800003;fill:#000000;fill-opacity:0.99215686;stroke:#000000;stroke-width:1;stroke-miterlimit:4;stroke-dasharray:none;stroke-dashoffset:0;stroke-opacity:0.97071078"
       id="path822"
       cx="82.915962"
       cy="204.37924"
       rx="3.0067821"
       ry="2.6726952" />
    <ellipse
       style="opacity:0.85;fill:#ffffff;fill-opacity:0.99215686;stroke:#000000;stroke-width:1.21925473;stroke-miterlimit:4;stroke-dasharray:none;stroke-dashoffset:0;stroke-opacity:0.97071078"
       id="path820-3"
       cx="108.37337"
       cy="204.79628"
       rx="8.3093624"
       ry="5.8371196" />
    <ellipse
       style="opacity:0.70800003;fill:#000000;fill-opacity:0.99215686;stroke:#000000;stroke-width:1;stroke-miterlimit:4;stroke-dasharray:none;stroke-dashoffset:0;stroke-opacity:0.97071078"
       id="path822-6"
       cx="108.44017"
       cy="204.31244"
       rx="3.0067821"
       ry="2.6726952" />
    <path
       style="opacity:1;fill:#600000;fill-opacity:1;stroke:#333333;stroke-width:1;stroke-miterlimit:4;stroke-dasharray:none;stroke-dashoffset:0;stroke-opacity:0.97071078"
       d="m 105.69933,256.24511 c 0,7.74947 -4.30778,14.03165 -9.621692,14.03165 -5.313919,0 -9.6217,-6.28218 -9.6217,-14.03165 0,-7.74947 4.575051,-5.87993 9.88897,-5.87993 5.313912,0 9.354422,-1.86954 9.354422,5.87993 z"
       id="path844"
       inkscape:connector-curvature="0"
       sodipodi:nodetypes="sssss" />
    <path
       style="fill:#333333;stroke:#333333;stroke-width:0.19614142px;stroke-linecap:butt;stroke-linejoin:miter;stroke-opacity:1"
       d="m 84.656073,238.84826 c 0,0 5.066057,-9.49245 10.338887,-8.44829 5.27284,1.04417 9.25331,9.30261 9.25331,9.30261 0,0 -4.13556,0.67471 -9.408392,-0.0847 -5.272831,-0.75939 -10.183805,-0.76964 -10.183805,-0.76964 z"
       id="path849"
       inkscape:connector-curvature="0"
       sodipodi:nodetypes="cccsc" />
    <path
       style="fill:#333333;stroke:#333333;stroke-width:0.26458332px;stroke-linecap:butt;stroke-linejoin:miter;stroke-opacity:1"
       d="m 100.82515,193.15103 c 0,0 9.73288,-3.02381 12.85119,-1.70089 3.1183,1.32292 6.61458,6.14211 6.61458,6.14211 0,0 -4.63021,-3.96875 -7.37054,-4.6302 -2.74032,-0.66146 -12.09523,0.18898 -12.09523,0.18898 z"
       id="path851"
       inkscape:connector-curvature="0" />
    <path
       inkscape:connector-curvature="0"
       id="path853"
       d="m 91.471261,193.05654 c 0,0 -10.111369,-3.02381 -13.350943,-1.70089 -3.239564,1.32292 -6.871807,6.14211 -6.871807,6.14211 0,0 4.810269,-3.96875 7.657164,-4.6302 2.846885,-0.66146 12.565586,0.18898 12.565586,0.18898 z"
       style="fill:#333333;stroke:#333333;stroke-width:0.2696788px;stroke-linecap:butt;stroke-linejoin:miter;stroke-opacity:1" />
    <g
       id="g861"
       transform="translate(-8.1838084,80.871845)"
       style="stroke-width:1;stroke-miterlimit:4;stroke-dasharray:none">
      <ellipse
         transform="matrix(0.48633605,-0.87377185,0.96476976,0.26309564,0,0)"
         ry="2.1342111"
         rx="0.69586116"
         cy="165.1539"
         cx="-111.3499"
         id="path855"
         style="opacity:1;fill:#4d4d4d;fill-opacity:0.99163178;stroke:#4d4d4d;stroke-width:1.01485372;stroke-miterlimit:4;stroke-dasharray:none;stroke-dashoffset:0;stroke-opacity:0.97071078" />
      <path
         inkscape:connector-curvature="0"
         id="path857"
         d="m 106.30646,136.37101 c 1.5368,2.40542 0.80181,1.73725 1.67043,2.40542 0.86863,0.66818 1.80407,2.80633 0.73499,3.34087 -1.06908,0.53454 -1.9377,0.93545 -1.9377,0.93545"
         style="fill:none;fill-opacity:0.90980392;stroke:#4d4d4d;stroke-width:1;stroke-linecap:butt;stroke-linejoin:miter;stroke-miterlimit:4;stroke-dasharray:none;stroke-opacity:1" />
    </g>
    <g
       transform="matrix(-0.7983833,0,0,1,175.82808,80.871845)"
       id="g867"
       style="stroke-width:1.11916542;stroke-miterlimit:4;stroke-dasharray:none">
      <ellipse
         style="opacity:1;fill:#4d4d4d;fill-opacity:0.99163178;stroke:#4d4d4d;stroke-width:1.13578916;stroke-miterlimit:4;stroke-dasharray:none;stroke-dashoffset:0;stroke-opacity:0.97071078"
         id="ellipse863"
         cx="-111.23454"
         cy="165.53699"
         rx="0.69586116"
         ry="2.1342111"
         transform="matrix(0.48633605,-0.87377185,0.96476976,0.26309564,0,0)" />
      <path
         style="fill:none;fill-opacity:0.90980392;stroke:#4d4d4d;stroke-width:1.11916542;stroke-linecap:butt;stroke-linejoin:miter;stroke-miterlimit:4;stroke-dasharray:none;stroke-opacity:1"
         d="m 103.58425,125.03172 c -0.63727,8.34383 3.48114,13.24773 4.39264,13.74471 0.86863,0.66818 1.80407,2.80633 0.73499,3.34087 -1.06908,0.53454 -1.9377,0.93545 -1.9377,0.93545"
         id="path865"
         inkscape:connector-curvature="0"
         sodipodi:nodetypes="ccsc" />
    </g>
    <path
       style="fill:#800000;fill-opacity:1;stroke:#540000;stroke-width:1.26499999;stroke-linecap:butt;stroke-linejoin:miter;stroke-miterlimit:4;stroke-dasharray:none;stroke-opacity:1"
       d="m 60.422227,274.52288 c -2.352588,-7.39931 -5.275361,-14.80945 -4.927194,-22.7295 0.0087,-6.90562 -0.561999,-13.7704 -0.36842,-20.67656 -0.759225,-6.12325 -3.085178,-12.46706 0.246433,-18.35575 4.10991,-11.07161 8.877596,-22.10027 16.448217,-31.30256 2.295236,-5.44513 8.040885,-8.05771 13.638032,-8.13157 5.279732,-1.35044 11.290017,-5.23445 16.537675,-1.74233 5.31455,3.8531 12.1718,4.70737 17.67838,8.16097 4.52979,1.36016 11.03393,2.50441 11.71239,8.22394 -0.72029,6.89914 -0.39433,14.10194 2.28053,20.60222 1.81048,8.72079 2.73719,17.76246 6.66949,25.8785 1.72009,5.7448 1.99348,11.82508 2.47632,17.76063 -1.01261,5.82255 0.85651,13.37052 -1.27471,18.17031 -2.28207,-2.13107 -4.4295,-4.93238 -7.86813,-2.45835 -5.14783,0.36704 -6.42162,4.78296 -9.60919,8.6445 -2.1649,4.53646 -3.99326,0.87974 -3.29459,-2.26383 0.10645,-6.06332 1.21227,-12.0884 1.08432,-18.14987 1.71548,-6.30238 5.4194,-12.27433 3.90054,-19.06801 0.74708,-5.7295 0.1447,-11.41196 0.0532,-17.13477 -0.22788,-5.87103 0.40463,-11.76737 0.13157,-17.6099 -0.44316,-6.43803 -4.79964,-13.7379 -12.02337,-12.09713 -4.81852,-2.17893 -11.77699,-3.16497 -18.212978,-0.28946 1.15871,-1.74637 0.23179,-4.67332 -1.75874,-4.16774 -3.839626,0.97524 -7.793541,1.52392 -11.449343,3.14042 -4.750454,1.45492 -10.077955,2.91414 -11.244148,8.57072 -1.581279,4.68289 -3.22068,10.15694 -1.167612,14.9315 6.984558,1.77152 -2.523592,7.13868 -0.461633,11.65419 -0.885197,5.69696 2.041738,11.15027 0.925737,16.81845 -1.603565,4.4024 1.795479,7.05924 4.148932,9.68806 1.001859,7.19746 -2.624567,14.31303 -1.365475,21.47939 4.332772,5.41221 -4.867863,0.91441 -7.129117,3.3946 -2.14914,1.21066 -9.212165,0.2256 -8.120627,0.0181 l 0.993928,-0.41288 -0.918234,0.58764"
       id="path871"
       inkscape:connector-curvature="0"
       sodipodi:nodetypes="ccccccccccccccccccccccsccccccccccc" />
    <path
       style="fill:#d7d700;fill-opacity:1;stroke:none;stroke-width:0.28004134px;stroke-linecap:butt;stroke-linejoin:miter;stroke-opacity:1"
       d="m 99.520746,213.77875 c 6.047614,15.1377 6.425594,11.22095 5.953124,15.1377 -0.47247,3.91675 2.74033,7.72764 2.74033,7.72764 l -0.85045,-10.58581 z"
       id="path1010"
       inkscape:connector-curvature="0" />
    <path
       style="fill:#d7d700;fill-opacity:1;stroke:none;stroke-width:0.26458332px;stroke-linecap:butt;stroke-linejoin:miter;stroke-opacity:1"
       d="m 101.71389,210.0775 c 11.02487,3.20723 14.56619,-1.60362 14.56619,-1.60362 0,0 0.86863,6.48128 -5.67947,5.81311 -6.54811,-0.66817 -8.88672,-4.20949 -8.88672,-4.20949 z"
       id="path1012"
       inkscape:connector-curvature="0" />
    <path
       style="fill:#d7d700;fill-opacity:1;stroke:none;stroke-width:0.27922305px;stroke-linecap:butt;stroke-linejoin:miter;stroke-opacity:1"
       d="m 91.070831,209.88629 c -12.278663,3.20723 -16.222717,-1.60362 -16.222717,-1.60362 0,0 -0.967415,6.48128 6.325363,5.81311 7.292784,-0.66817 9.897354,-4.20949 9.897354,-4.20949 z"
       id="path1012-2"
       inkscape:connector-curvature="0" />
    <path
       style="fill:#d7d700;fill-opacity:1;stroke:none;stroke-width:0.26201016px;stroke-linecap:butt;stroke-linejoin:miter;stroke-opacity:1"
       d="m 89.286462,215.55992 c -5.293901,15.1377 -5.624773,11.22095 -5.211187,15.1377 0.413586,3.91675 -2.398805,7.72764 -2.398805,7.72764 l 0.744459,-10.58581 z"
       id="path1010-9"
       inkscape:connector-curvature="0" />
    <path
       style="fill:#d7d700;fill-opacity:1;stroke:none;stroke-width:0.26458332px;stroke-linecap:butt;stroke-linejoin:miter;stroke-opacity:1"
       d="m 86.098562,246.04655 c 0,0 -1.299989,-2.27538 6.920994,-1.61393 8.220984,0.66146 10.479344,1.63687 10.479344,1.63687 0,0 0.88248,-3.09293 -10.338994,-2.69529 -11.221473,0.39764 -7.061344,2.67235 -7.061344,2.67235 z"
       id="path1044"
       inkscape:connector-curvature="0"
       sodipodi:nodetypes="cccsc" />
    <path
       style="opacity:1;fill:#4d4d4d;fill-opacity:1;stroke:none;stroke-width:0.76575565;stroke-miterlimit:4;stroke-dasharray:none;stroke-dashoffset:0;stroke-opacity:1"
       d="m 58.501845,199.30179 v 26.61382 h 5.511205 c 0.01936,0.007 0.03874,0.0123 0.05812,0.0164 1.294988,0 2.344783,-5.96078 2.344784,-13.31379 -7.42e-4,-7.28058 -1.031313,-13.20755 -2.31343,-13.3049 v -0.0115 z"
       id="path1033"
       inkscape:connector-curvature="0"
       sodipodi:nodetypes="cccccccc" />
    <ellipse
       style="opacity:1;fill:#999999;fill-opacity:1;stroke:none;stroke-width:0.76575565;stroke-miterlimit:4;stroke-dasharray:none;stroke-dashoffset:0;stroke-opacity:1"
       id="path1033-3"
       cx="58.124676"
       cy="212.58928"
       rx="2.3447831"
       ry="13.313796" />
    <ellipse
       style="opacity:1;fill:#d7d700;fill-opacity:1;stroke:none;stroke-width:0.43582368;stroke-miterlimit:4;stroke-dasharray:none;stroke-dashoffset:0;stroke-opacity:1"
       id="path1033-3-6"
       cx="57.813004"
       cy="211.86673"
       rx="1.1122143"
       ry="9.0919561" />
    <path
       style="fill:#666666;stroke:none;stroke-width:0.26458332px;stroke-linecap:butt;stroke-linejoin:miter;stroke-opacity:1"
       d="m 60.820849,199.41107 c 0.668234,0.0103 0.964596,0.30664 1.421485,1.84955 3.316828,-24.28025 12.636515,-36.27083 40.066666,-33.5816 28.62456,2.80633 28.32204,33.55368 28.32204,41.41141 0,7.85772 -1.19063,3.1601 -1.19063,3.1601 0,0 -0.53822,-49.7975 -33.840009,-45.86863 -33.301784,3.92886 -34.779552,33.02917 -34.779552,33.02917 z"
       id="path1068"
       inkscape:connector-curvature="0"
       sodipodi:nodetypes="ccsscsc" />
    <path
       style="fill:#800000;stroke:none;stroke-width:0.26458332px;stroke-linecap:butt;stroke-linejoin:miter;stroke-opacity:1;fill-opacity:1"
       d="m 67.017657,199.86735 c -2.15152,11.5995 -2.338608,0.0936 -2.15152,11.5995 0.187089,11.50595 2.162709,6.87935 0.654811,10.66405 -1.507898,3.78471 1.474332,-3.56236 -1.507898,3.78471 -2.98223,7.34707 1.507898,9.03087 1.507898,9.03087 l 4.11595,-18.89596 -1.216076,-11.78658 z"
       id="path1072"
       inkscape:connector-curvature="0" />
    <path
       style="fill:none;stroke:#800000;stroke-width:0.26458332px;stroke-linecap:butt;stroke-linejoin:miter;stroke-opacity:1"
       d="m 126.82458,209.31533 1.21608,18.61532 5.7062,-5.05139 -0.60776,-14.30752 -3.50819,-15.9073 c 0,0 -0.56126,-6.36102 -0.56126,0.28063 0,6.64165 2.78667,4.51569 0.87884,8.61886 -1.90783,4.10317 -3.12391,7.7514 -3.12391,7.7514 z"
       id="path1074"
       inkscape:connector-curvature="0" />
  </g>
</svg>
