<?xml version="1.0" encoding="UTF-8" standalone="no"?>
<!-- Created with Inkscape (http://www.inkscape.org/) -->

<svg
   xmlns:dc="http://purl.org/dc/elements/1.1/"
   xmlns:cc="http://creativecommons.org/ns#"
   xmlns:rdf="http://www.w3.org/1999/02/22-rdf-syntax-ns#"
   xmlns:svg="http://www.w3.org/2000/svg"
   xmlns="http://www.w3.org/2000/svg"
   xmlns:sodipodi="http://sodipodi.sourceforge.net/DTD/sodipodi-0.dtd"
   xmlns:inkscape="http://www.inkscape.org/namespaces/inkscape"
   width="190.63594mm"
   height="110.76397mm"
   viewBox="0 0 190.63594 110.76397"
   version="1.1"
   id="svg8"
   sodipodi:docname="playground0.svg"
   inkscape:version="0.92.4 (f8dce91, 2019-08-02)">
  <defs
     id="defs2" />
  <sodipodi:namedview
     id="base"
     pagecolor="#ffffff"
     bordercolor="#666666"
     borderopacity="1.0"
     inkscape:pageopacity="0.0"
     inkscape:pageshadow="2"
     inkscape:zoom="0.5"
     inkscape:cx="390.33538"
     inkscape:cy="-518.6058"
     inkscape:document-units="mm"
     inkscape:current-layer="layer1"
     showgrid="false"
     inkscape:window-width="1050"
     inkscape:window-height="1643"
     inkscape:window-x="0"
     inkscape:window-y="0"
     inkscape:window-maximized="1"
     fit-margin-top="-0.2"
     fit-margin-left="0"
     fit-margin-right="0"
     fit-margin-bottom="0"
     showguides="true"
     inkscape:guide-bbox="true" />
  <metadata
     id="metadata5">
    <rdf:RDF>
      <cc:Work
         rdf:about="">
        <dc:format>image/svg+xml</dc:format>
        <dc:type
           rdf:resource="http://purl.org/dc/dcmitype/StillImage" />
        <dc:title></dc:title>
      </cc:Work>
    </rdf:RDF>
  </metadata>
  <g
     inkscape:label="Layer 1"
     inkscape:groupmode="layer"
     id="layer1"
     transform="translate(-52.986007,-169.7386)">
    <path
       style="opacity:1;fill:#600000;fill-opacity:1;stroke:none;stroke-width:0.66500002;stroke-miterlimit:4;stroke-dasharray:none;stroke-dashoffset:0;stroke-opacity:0.70588235"
       d="m 131.01494,272.4479 -57.448662,6.99719 -10.201124,-72.24795 63.516216,-9.91296 z"
       id="rect879"
       inkscape:connector-curvature="0"
       sodipodi:nodetypes="ccccc" />
    <path
       style="fill:#ffff00;fill-opacity:0.99159666;stroke:#060600;stroke-width:0.66500002;stroke-linecap:butt;stroke-linejoin:miter;stroke-miterlimit:4;stroke-dasharray:none;stroke-opacity:1"
       d="m 88.628366,248.20814 c -2.33096,26.46635 -0.508213,17.26331 -14.649378,25.85576 -14.141162,8.59246 58.508292,4.79493 58.508292,4.79493 0,0 -27.81303,-27.22133 -19.53673,-30.45186 8.27629,-3.23053 -24.322184,-0.19883 -24.322184,-0.19883 z"
       id="path876"
       inkscape:connector-curvature="0"
       sodipodi:nodetypes="cscsc" />
    <path
       sodipodi:nodetypes="ccscsc"
       inkscape:connector-curvature="0"
       id="path982"
       d="m 111.79346,279.5195 c 11.34062,-0.19815 20.69382,-0.66067 20.69382,-0.66067 0,0 -2.50019,-2.46081 -5.77504,-5.99158 -7.63276,-8.22925 -19.47372,-22.27082 -13.67592,-24.51513 -7.65845,1.5587 -18.31572,12.34679 -10.09907,20.58567 2.81635,2.82397 8.85621,10.58171 8.85621,10.58171 z"
       style="fill:#d6d600;fill-opacity:0.99159666;stroke:none;stroke-width:0.66500002;stroke-linecap:butt;stroke-linejoin:miter;stroke-miterlimit:4;stroke-dasharray:none;stroke-opacity:1" />
    <path
       style="opacity:1;fill:#ffff00;fill-opacity:0.99215686;stroke:#000000;stroke-width:1;stroke-miterlimit:4;stroke-dasharray:none;stroke-dashoffset:0;stroke-opacity:0.97071078"
       d="m 122.15352,213.99084 c 1.87898,13.30762 0.63922,18.05806 -2.05844,28.45963 -2.08129,8.02498 -9.54381,15.54048 -17.76499,16.70128 -7.78674,1.09945 -13.937469,-4.21055 -20.501789,-8.98402 -8.247013,-5.9971 -16.200767,-13.04722 -18.167075,-26.9733 -3.531417,-25.01073 9.526077,-42.17609 27.095598,-44.65684 17.569516,-2.48074 27.865276,10.44252 31.396696,35.45325 z"
       id="path815"
       inkscape:connector-curvature="0"
       sodipodi:nodetypes="sssssss" />
    <ellipse
       style="opacity:0.85;fill:#ffffff;fill-opacity:0.99215686;stroke:#000000;stroke-width:1.21925473;stroke-miterlimit:4;stroke-dasharray:none;stroke-dashoffset:0;stroke-opacity:0.97071078"
       id="path820"
       cx="50.42453"
       cy="216.38492"
       rx="8.3093624"
       ry="5.8371196"
       transform="rotate(-8.0368094)" />
    <ellipse
       style="opacity:0.70800003;fill:#000000;fill-opacity:0.99215686;stroke:#000000;stroke-width:1;stroke-miterlimit:4;stroke-dasharray:none;stroke-dashoffset:0;stroke-opacity:0.97071078"
       id="path822"
       cx="53.995125"
       cy="217.36565"
       rx="3.0067821"
       ry="2.6726952"
       transform="rotate(-8.0368094)" />
    <ellipse
       style="opacity:0.85;fill:#ffffff;fill-opacity:0.99215686;stroke:#000000;stroke-width:1.11797309;stroke-miterlimit:4;stroke-dasharray:none;stroke-dashoffset:0;stroke-opacity:0.97071078"
       id="path820-3"
       cx="75.293938"
       cy="215.72278"
       rx="7.705193"
       ry="5.292448"
       transform="rotate(-8.0368094)" />
    <ellipse
       style="opacity:0.70800003;fill:#000000;fill-opacity:0.99215686;stroke:#000000;stroke-width:1;stroke-miterlimit:4;stroke-dasharray:none;stroke-dashoffset:0;stroke-opacity:0.97071078"
       id="path822-6"
       cx="78.32872"
       cy="216.5051"
       rx="3.0067821"
       ry="2.6726952"
       transform="rotate(-8.0368094)" />
    <path
       style="opacity:1;fill:#600000;fill-opacity:1;stroke:#333333;stroke-width:1;stroke-miterlimit:4;stroke-dasharray:none;stroke-dashoffset:0;stroke-opacity:0.97071078"
       d="m 108.44994,255.01572 c 1.08344,7.67336 -0.76232,14.37294 -6.02404,15.11587 -5.26173,0.74293 -10.405509,-4.87528 -11.488957,-12.54864 -1.083447,-7.67335 3.708049,-6.46181 8.969777,-7.20475 5.26172,-0.74293 7.45977,-3.03584 8.54322,4.63752 z"
       id="path844"
       inkscape:connector-curvature="0"
       sodipodi:nodetypes="sssss" />
    <path
       style="fill:#333333;stroke:#333333;stroke-width:0.17868009px;stroke-linecap:butt;stroke-linejoin:miter;stroke-opacity:1"
       d="m 86.711812,240.60966 c 0,0 3.305878,-2.18123 7.759087,-1.74901 4.45322,0.43225 8.362071,0.34088 8.362071,0.34088 0,0 -3.282611,1.14908 -7.695763,1.00056 -4.413153,-0.14852 -8.425394,0.40758 -8.425394,0.40758 z"
       id="path849"
       inkscape:connector-curvature="0"
       sodipodi:nodetypes="cccscc" />
    <path
       style="fill:#333333;stroke:#333333;stroke-width:0.26458332px;stroke-linecap:butt;stroke-linejoin:miter;stroke-opacity:1"
       d="m 96.34389,193.09961 c 0,0 9.21453,-4.35486 12.48717,-3.4809 3.27263,0.87396 5.27795,5.4578 5.27795,5.4578 0,0 -3.00921,-3.58322 -5.8151,-3.85505 -2.80589,-0.27184 -11.95002,1.87815 -11.95002,1.87815 z"
       id="path851"
       inkscape:connector-curvature="0"
       sodipodi:nodetypes="ccccc" />
    <path
       inkscape:connector-curvature="0"
       id="path853"
       d="m 87.068661,194.31381 c 0,0 -10.434817,-1.58045 -13.457617,0.1824 -3.02279,1.76284 -5.945591,7.04252 -5.945591,7.04252 0,0 4.208157,-4.60229 6.934614,-5.65526 2.726446,-1.05299 12.468594,-1.56966 12.468594,-1.56966 z"
       style="fill:#333333;stroke:#333333;stroke-width:0.2696788px;stroke-linecap:butt;stroke-linejoin:miter;stroke-opacity:1" />
    <g
       id="g861"
       transform="rotate(-8.0368094,676.05683,244.97044)"
       style="stroke-width:1;stroke-miterlimit:4;stroke-dasharray:none">
      <ellipse
         transform="matrix(0.48633605,-0.87377185,0.96476976,0.26309564,0,0)"
         ry="2.1342111"
         rx="0.69586116"
         cy="165.1539"
         cx="-111.3499"
         id="path855"
         style="opacity:1;fill:#4d4d4d;fill-opacity:0.99163178;stroke:#4d4d4d;stroke-width:1.01485372;stroke-miterlimit:4;stroke-dasharray:none;stroke-dashoffset:0;stroke-opacity:0.97071078" />
      <path
         inkscape:connector-curvature="0"
         id="path857"
         d="m 106.30646,136.37101 c 1.5368,2.40542 0.80181,1.73725 1.67043,2.40542 0.86863,0.66818 1.80407,2.80633 0.73499,3.34087 -1.06908,0.53454 -1.9377,0.93545 -1.9377,0.93545"
         style="fill:none;fill-opacity:0.90980392;stroke:#4d4d4d;stroke-width:1;stroke-linecap:butt;stroke-linejoin:miter;stroke-miterlimit:4;stroke-dasharray:none;stroke-opacity:1" />
    </g>
    <g
       transform="matrix(-0.79054194,0.11162138,0.13980927,0.99017845,154.91251,71.437073)"
       id="g867"
       style="stroke-width:1.11916542;stroke-miterlimit:4;stroke-dasharray:none">
      <ellipse
         style="opacity:1;fill:#4d4d4d;fill-opacity:0.99163178;stroke:#4d4d4d;stroke-width:1.13578916;stroke-miterlimit:4;stroke-dasharray:none;stroke-dashoffset:0;stroke-opacity:0.97071078"
         id="ellipse863"
         cx="-111.23454"
         cy="165.53699"
         rx="0.69586116"
         ry="2.1342111"
         transform="matrix(0.48633605,-0.87377185,0.96476976,0.26309564,0,0)" />
      <path
         style="fill:none;fill-opacity:0.90980392;stroke:#4d4d4d;stroke-width:1.11916542;stroke-linecap:butt;stroke-linejoin:miter;stroke-miterlimit:4;stroke-dasharray:none;stroke-opacity:1"
         d="m 103.58425,125.03172 c -0.63727,8.34383 3.48114,13.24773 4.39264,13.74471 0.86863,0.66818 1.80407,2.80633 0.73499,3.34087 -1.06908,0.53454 -1.9377,0.93545 -1.9377,0.93545"
         id="path865"
         inkscape:connector-curvature="0"
         sodipodi:nodetypes="ccsc" />
    </g>
    <path
       style="fill:#800000;fill-opacity:1;stroke:#540000;stroke-width:1.26499999;stroke-linecap:butt;stroke-linejoin:miter;stroke-miterlimit:4;stroke-dasharray:none;stroke-opacity:1"
       d="m 67.714325,279.32096 c -3.363974,-6.99772 -4.861894,-15.79734 -5.624443,-23.68828 -0.956855,-6.83901 1.447153,-7.75683 0.673286,-14.62223 -1.607855,-5.95696 -3.301178,-13.97124 -0.825582,-20.26789 2.52163,-11.53747 -2.157143,-24.99527 4.052558,-35.16562 1.511413,-5.71255 6.835368,-9.10276 12.367216,-9.95843 5.039073,-2.07533 10.447307,-6.76149 16.131656,-4.03734 5.801054,3.07223 12.710384,2.95941 18.645734,5.60922 4.67546,0.71349 17.22883,1.33404 18.70027,6.90254 -6.76012,8.38729 -4.37201,13.62169 -0.81462,19.68416 3.01194,8.38202 5.19366,17.20532 10.22204,24.69188 2.50637,5.44789 3.62715,11.43023 4.9351,17.23998 -0.18862,5.90693 2.71742,13.11945 1.27818,18.17006 -2.5576,-1.79108 -5.07558,-4.26465 -8.13455,-1.33417 -5.04595,1.08315 -5.68985,5.63379 -8.30623,9.90306 -1.5094,4.79457 -3.83104,1.42939 -3.57874,-1.78099 -0.7423,-6.01865 -0.4897,-12.13916 -1.46385,-18.1232 0.8175,-6.48032 3.65011,-12.91146 1.19635,-19.42607 -0.0613,-5.77767 -9.01431,-9.04993 -9.90501,-14.70374 -1.04647,-5.78151 -0.74978,-11.90234 -1.837,-17.64931 -1.33891,-6.31284 3.38991,-10.51857 -6.52923,-12.37354 -5.07583,-1.48386 -12.103818,-1.48736 -18.074572,2.25972 0.903171,-1.89121 -0.42386,-4.65982 -2.324155,-3.88092 -3.665567,1.50248 -7.503938,2.59857 -10.897833,4.71031 -4.500386,2.10478 -9.57155,4.29451 -9.935447,10.05857 -0.911037,4.85798 -1.702369,14.15524 0.998063,18.59587 7.163633,0.77761 1.426021,4.89614 4.099038,9.07902 -0.08002,5.76477 4.703128,10.19405 4.390552,15.96258 -0.972319,4.58336 3.326058,8.04851 6.02393,10.32247 1.998291,6.9867 -5.274912,12.66851 -3.026263,19.58845 5.046894,4.75329 -4.69221,1.586 -6.584502,4.35798 -1.95877,1.49923 -9.090146,1.51133 -8.038339,1.15326 l 0.926442,-0.54779 -0.827058,0.71025"
       id="path871"
       inkscape:connector-curvature="0"
       sodipodi:nodetypes="ccccccccccccccccccccccsccccccccccc" />
    <path
       style="fill:#d7d700;fill-opacity:1;stroke:none;stroke-width:0.09792801px;stroke-linecap:butt;stroke-linejoin:miter;stroke-opacity:1"
       d="m 96.800735,212.35587 c 3.338065,3.55446 3.367675,2.50865 3.294615,3.56059 -0.073,1.05197 1.54455,1.83706 1.54455,1.83706 l -0.78078,-2.705 z"
       id="path1010"
       inkscape:connector-curvature="0" />
    <path
       style="fill:#d7d700;fill-opacity:1;stroke:none;stroke-width:0.15989752px;stroke-linecap:butt;stroke-linejoin:miter;stroke-opacity:1"
       d="m 98.001239,210.14591 c 11.080351,-0.38153 14.341241,-2.61642 14.341241,-2.61642 0,0 1.19105,2.22242 -5.32686,2.89627 -6.51792,0.67385 -9.014381,-0.27985 -9.014381,-0.27985 z"
       id="path1012"
       inkscape:connector-curvature="0" />
    <path
       style="fill:#d7d700;fill-opacity:1;stroke:none;stroke-width:0.27922305px;stroke-linecap:butt;stroke-linejoin:miter;stroke-opacity:1"
       d="m 89.025118,211.03425 c -11.709667,4.8924 -16.287585,0.68021 -16.287585,0.68021 0,0 -0.05177,6.55288 7.075964,4.87167 7.127742,-1.6812 9.211621,-5.55188 9.211621,-5.55188 z"
       id="path1012-2"
       inkscape:connector-curvature="0" />
    <path
       style="fill:#d7d700;fill-opacity:1;stroke:none;stroke-width:0.23458058px;stroke-linecap:butt;stroke-linejoin:miter;stroke-opacity:1"
       d="m 88.051501,216.90162 c -3.545447,12.75506 -4.312014,9.69257 -3.463546,12.7435 0.848469,3.05094 -1.509219,6.46888 -1.509219,6.46888 l -0.449189,-8.50614 z"
       id="path1010-9"
       inkscape:connector-curvature="0" />
    <path
       style="fill:#d7d700;fill-opacity:1;stroke:none;stroke-width:0.24180976px;stroke-linecap:butt;stroke-linejoin:miter;stroke-opacity:1"
       d="m 89.034208,247.55189 c 0,0 -1.393286,-2.10122 5.498424,-2.40629 6.891708,-0.30506 8.895878,0.39704 8.895878,0.39704 0,0 0.29744,-3.1656 -8.927777,-1.46145 -9.22522,1.70414 -5.466525,3.4707 -5.466525,3.4707 z"
       id="path1044"
       inkscape:connector-curvature="0"
       sodipodi:nodetypes="cccsc" />
    <path
       style="fill:#d7d700;fill-opacity:1;stroke:none;stroke-width:0.24308608px;stroke-linecap:butt;stroke-linejoin:miter;stroke-opacity:1"
       d="m 108.5534,218.13587 c -0.2722,8.45547 3.50351,22.01756 3.50351,22.01756 0,0 -4.27045,-7.88087 -4.61363,-12.30814 -0.34317,-4.42728 1.11012,-9.70942 1.11012,-9.70942 z"
       id="path1182"
       inkscape:connector-curvature="0" />
    <path
       style="fill:#d7d700;fill-opacity:1;stroke:none;stroke-width:0.17458519px;stroke-linecap:butt;stroke-linejoin:miter;stroke-opacity:1"
       d="m 105.55948,221.9321 c -0.26676,5.85716 2.44346,15.21984 2.44346,15.21984 0,0 -3.12178,-5.4249 -3.34394,-8.48803 -0.22216,-3.06312 0.90048,-6.73181 0.90048,-6.73181 z"
       id="path1182-7"
       inkscape:connector-curvature="0" />
    <path
       style="fill:#d7d700;fill-opacity:1;stroke:none;stroke-width:0.14239517px;stroke-linecap:butt;stroke-linejoin:miter;stroke-opacity:1"
       d="m 102.97165,224.75266 c -0.53645,3.94708 1.72214,10.11112 1.72214,10.11112 0,0 -2.84995,-3.49965 -2.9287,-5.5471 -0.0787,-2.04745 1.20656,-4.56402 1.20656,-4.56402 z"
       id="path1182-7-5"
       inkscape:connector-curvature="0" />
    <g
       id="g1130"
       transform="matrix(-0.98732604,-0.80094198,0.80094198,-0.98732604,180.73205,318.14153)">
      <ellipse
         style="opacity:1;fill:#ffffff;fill-opacity:1;stroke:none;stroke-width:3.77952766;stroke-miterlimit:4;stroke-dasharray:none;stroke-dashoffset:0;stroke-opacity:1"
         id="path1132"
         cx="-29.792456"
         cy="-69.480904"
         transform="rotate(140.95023)"
         rx="24.125"
         ry="25.3125" />
      <g
         id="g1107">
        <path
           id="path1095"
           d="m 12.637,54.656 c 0.293,0 0.584,-0.112 0.808,-0.334 l 5.868,-5.869 c 0.444,-0.446 0.444,-1.168 -0.002,-1.613 -0.445,-0.445 -1.166,-0.444 -1.613,10e-4 l -5.867,5.868 c -0.444,0.445 -0.444,1.168 0,1.613 0.223,0.222 0.515,0.334 0.806,0.334 z"
           inkscape:connector-curvature="0" />
        <path
           id="path1097"
           d="m 25.051,84.982 -4.385,4.384 c -0.446,0.444 -0.446,1.167 0,1.611 0.223,0.225 0.514,0.335 0.807,0.335 0.292,0 0.583,-0.11 0.807,-0.335 l 4.384,-4.382 c 0.443,-0.446 0.443,-1.166 0,-1.612 -0.448,-0.445 -1.169,-0.445 -1.613,-0.001 z"
           inkscape:connector-curvature="0" />
        <path
           id="path1099"
           d="m 53.759,81.161 -4.382,4.384 c -0.445,0.446 -0.445,1.168 0,1.613 0.221,0.223 0.514,0.336 0.807,0.336 0.291,0 0.582,-0.113 0.805,-0.336 l 4.385,-4.384 c 0.443,-0.446 0.443,-1.167 0,-1.613 -0.447,-0.445 -1.169,-0.444 -1.615,0 z"
           inkscape:connector-curvature="0" />
        <path
           id="path1101"
           d="m 9.43,72.669 c 0.287,0 0.575,-0.108 0.799,-0.325 4.76,-4.662 9.748,-9.649 14.428,-14.427 0.441,-0.449 0.434,-1.171 -0.018,-1.613 -0.448,-0.439 -1.171,-0.434 -1.611,0.017 -4.668,4.766 -9.645,9.742 -14.395,14.393 -0.451,0.441 -0.457,1.163 -0.018,1.613 0.223,0.226 0.52,0.342 0.815,0.342 z"
           inkscape:connector-curvature="0" />
        <path
           id="path1103"
           d="m 53.95,70.693 c -0.45,-0.439 -1.173,-0.43 -1.612,0.02 -4.595,4.694 -9.572,9.671 -14.395,14.395 -0.451,0.44 -0.459,1.162 -0.018,1.611 0.225,0.229 0.519,0.344 0.814,0.344 0.287,0 0.577,-0.109 0.799,-0.326 4.833,-4.733 9.823,-9.724 14.429,-14.429 0.441,-0.451 0.433,-1.172 -0.017,-1.615 z"
           inkscape:connector-curvature="0" />
        <path
           id="path1105"
           d="m 66.684,8.688 c -7.377,0 -14.041,3.091 -18.781,8.04 -0.109,0.055 -0.217,0.124 -0.31,0.215 L 21.489,43.049 c -0.444,0.446 -0.444,1.167 0,1.613 0.224,0.223 0.516,0.333 0.808,0.333 0.292,0 0.584,-0.111 0.807,-0.333 L 42.414,25.35 c -1.123,2.904 -1.747,6.057 -1.747,9.355 0,1.265 0.096,2.508 0.271,3.725 -4.479,4.554 -9.925,9.994 -14.238,14.217 -0.449,0.44 -0.457,1.163 -0.016,1.613 0.224,0.228 0.52,0.343 0.813,0.343 0.289,0 0.577,-0.109 0.799,-0.326 3.978,-3.896 8.917,-8.822 13.175,-13.14 0.726,2.834 1.917,5.48 3.486,7.858 -6.704,6.787 -32.871,32.951 -37.316,37.302 -0.449,0.441 -0.457,1.163 -0.018,1.612 0.223,0.229 0.521,0.344 0.814,0.344 0.29,0 0.576,-0.107 0.799,-0.326 4.391,-4.298 29.963,-29.864 37.08,-37.062 1.897,2.388 4.201,4.437 6.811,6.037 L 28.838,81.19 c -0.445,0.446 -0.445,1.167 0,1.614 0.223,0.223 0.515,0.334 0.807,0.334 0.292,0 0.584,-0.111 0.807,-0.334 L 55.209,58.047 c 2.319,1.146 4.83,1.958 7.474,2.368 -2.387,2.431 -2.914,2.947 -6.377,6.338 l -0.436,0.43 c -0.45,0.44 -0.459,1.162 -0.017,1.612 0.224,0.229 0.518,0.343 0.814,0.343 0.287,0 0.576,-0.109 0.798,-0.326 l 0.438,-0.427 c 4.024,-3.945 4.096,-4.015 7.695,-7.69 0.36,0.016 0.723,0.029 1.086,0.029 3.236,0 6.335,-0.6 9.197,-1.686 L 57.55,77.368 c -0.446,0.446 -0.446,1.168 0,1.614 0.223,0.223 0.517,0.334 0.807,0.334 0.29,0 0.584,-0.111 0.806,-0.334 L 84.634,53.514 C 89.599,48.773 92.702,42.096 92.702,34.705 92.701,20.36 81.029,8.688 66.684,8.688 Z m 18.558,11.08 c -0.028,0.055 -0.085,0.089 -0.147,0.089 -0.01,0 -0.271,-10e-4 -1.677,-0.083 -0.047,-0.003 -0.09,-0.025 -0.12,-0.063 -3.712,-4.649 -8.083,-6.095 -8.126,-6.11 -0.049,-0.015 -0.086,-0.051 -0.104,-0.098 l -0.583,-1.499 c -0.024,-0.062 -0.01,-0.13 0.036,-0.177 0.045,-0.046 0.113,-0.062 0.173,-0.042 6.723,2.365 10.502,7.756 10.539,7.811 0.035,0.05 0.038,0.117 0.009,0.172 z m 2.373,15.366 c 0.136,0.752 0.654,4.726 -2.294,9.737 -0.012,0.02 -0.027,0.038 -0.046,0.051 -1.8,1.285 -5.746,2.15 -7.67,2.181 -0.002,0 -0.002,0 -0.003,0 -0.057,0 -0.107,-0.028 -0.14,-0.075 C 73.855,41.56 72.957,40.259 72.949,40.247 72.921,40.203 72.912,40.15 72.928,40.1 l 3.177,-9.591 c 0.016,-0.052 0.06,-0.092 0.112,-0.107 l 7.078,-2.021 c 0.049,-0.015 0.104,-0.004 0.146,0.026 0.035,0.026 3.255,2.51 4.174,6.727 z M 67.518,16.108 c 0,-0.051 0.023,-0.099 0.063,-0.131 0.083,-0.065 2.078,-1.618 5.466,-1.869 v 0 c 1.755,0 6.068,2.147 9.632,6.18 0.014,0.015 0.024,0.033 0.032,0.051 0.847,2.232 0.987,4.794 0.379,6.855 -0.017,0.053 -0.06,0.097 -0.113,0.113 -6.231,1.791 -6.991,2.104 -7.021,2.117 -0.021,0.008 -0.043,0.013 -0.066,0.013 -0.035,0 -0.068,-0.011 -0.098,-0.031 l -8.206,-5.957 c -0.042,-0.032 -0.067,-0.082 -0.067,-0.135 v -7.206 z m 4.456,24.66 c 0.056,0 0.108,0.027 0.141,0.075 l 4.539,6.957 c 0.026,0.04 0.034,0.091 0.021,0.137 -0.011,0.037 -1.092,3.664 -4.571,8.015 -0.021,0.025 -0.051,0.046 -0.084,0.056 -1.756,0.496 -3.646,0.748 -5.623,0.748 -2.295,0 -4.086,-0.348 -4.748,-0.496 -0.028,-0.007 -0.055,-0.021 -0.078,-0.041 -1.91,-1.783 -4.117,-6.32 -4.546,-8.334 -0.01,-0.043 -0.003,-0.087 0.021,-0.124 3.59,-5.692 4.555,-6.883 4.595,-6.931 0.032,-0.039 0.079,-0.061 0.129,-0.061 h 10.204 z m -5.685,-17.44 c -0.074,0.054 -7.302,5.416 -8.082,6.032 -0.029,0.024 -0.065,0.035 -0.103,0.035 -0.11,0 -0.296,-0.056 -2.696,-0.808 -0.972,-0.304 -2.295,-0.718 -4.104,-1.281 -0.043,-0.014 -0.079,-0.045 -0.1,-0.087 -0.613,-1.269 -1.059,-2.187 -1.059,-6.986 0,-0.042 0.017,-0.082 0.044,-0.112 2.899,-3.244 5.698,-5.171 9.069,-6.253 0.021,-0.007 0.042,-0.009 0.063,-0.008 4.036,0.292 6.884,2.133 6.911,2.151 0.047,0.03 0.074,0.083 0.074,0.138 l 0.047,7.044 c 0.003,0.053 -0.022,0.104 -0.064,0.135 z M 58.926,11.493 c 0.063,-0.021 0.136,-10e-4 0.181,0.05 0.043,0.053 0.051,0.126 0.019,0.186 -0.318,0.597 -0.482,1.325 -0.482,1.333 -0.016,0.061 -0.062,0.109 -0.122,0.125 -0.05,0.012 -4.996,1.34 -8.992,6.357 -0.032,0.04 -0.081,0.063 -0.131,0.063 -0.003,0 -0.003,0 -0.007,0 -1.155,-0.041 -1.49,-0.042 -1.492,-0.042 -0.062,0 -0.119,-0.034 -0.147,-0.088 -0.028,-0.053 -0.025,-0.118 0.008,-0.169 0.032,-0.052 3.491,-5.286 11.165,-7.815 z M 42.541,35.366 c 0.061,-0.027 0.137,-0.014 0.185,0.034 0.702,0.703 1.207,1.245 1.213,1.25 0.024,0.026 0.039,0.06 0.043,0.096 0.007,0.063 0.722,6.436 2.421,8.497 0.038,0.048 0.049,0.111 0.026,0.167 -0.377,0.959 -0.627,1.381 -0.637,1.4 -0.028,0.048 -0.08,0.078 -0.138,0.081 -0.001,0 -0.004,0 -0.006,0 -0.054,0 -0.104,-0.026 -0.136,-0.07 -0.026,-0.039 -2.78,-3.958 -3.071,-11.295 -0.003,-0.069 0.038,-0.132 0.1,-0.16 z m 2.357,0.896 c 0.002,-0.021 0.007,-0.039 0.013,-0.059 2.995,-7.112 5.577,-7.976 5.688,-8.008 0.031,-0.009 0.063,-0.009 0.097,0 l 7.081,2.125 c 0.052,0.016 0.095,0.057 0.11,0.108 l 3.083,9.622 c 0.017,0.052 0.008,0.109 -0.027,0.152 -0.013,0.02 -1.573,2.095 -4.7,6.946 -0.029,0.048 -0.082,0.076 -0.139,0.076 -0.003,0 -0.004,0 -0.006,0 -3.655,-0.16 -8.424,-1.881 -8.748,-2.315 -0.311,-0.414 -2.575,-5.755 -2.452,-8.647 z m 16.367,22.451 c -0.048,-0.013 -0.088,-0.049 -0.108,-0.096 -0.02,-0.047 -0.016,-0.1 0.008,-0.144 0.002,-0.006 0.25,-0.462 0.537,-1.075 0.033,-0.066 0.106,-0.104 0.178,-0.093 1.688,0.286 3.332,0.432 4.888,0.432 3.417,0 5.295,-0.708 5.313,-0.714 0.058,-0.022 0.125,-0.011 0.171,0.031 0.005,0.004 0.429,0.385 0.956,0.93 0.041,0.041 0.057,0.102 0.041,0.158 -0.014,0.055 -0.057,0.1 -0.112,0.116 -2.229,0.673 -4.556,1.013 -6.915,1.013 -2.962,0 -4.937,-0.553 -4.957,-0.558 z M 87.016,47.056 c -0.032,0.045 -0.082,0.071 -0.137,0.071 -0.007,0 -0.014,0 -0.021,-0.001 -0.062,-0.008 -0.114,-0.049 -0.135,-0.106 -0.005,-0.009 -0.086,-0.229 -0.456,-1.429 -0.014,-0.045 -0.008,-0.094 0.016,-0.134 2.725,-4.558 2.563,-8.93 2.561,-8.973 -0.002,-0.06 0.027,-0.117 0.078,-0.148 l 1.07,-0.676 c 0.05,-0.033 0.113,-0.034 0.168,-0.005 0.053,0.028 0.088,0.083 0.088,0.143 0.125,6.36 -3.199,11.209 -3.232,11.258 z"
           inkscape:connector-curvature="0"
           style="fill:#333333" />
      </g>
    </g>
  </g>
</svg>
